<svg xmlns="http://www.w3.org/2000/svg" xmlns:xlink="http://www.w3.org/1999/xlink" width="500" zoomAndPan="magnify" viewBox="0 0 375 374.999991" height="500" preserveAspectRatio="xMidYMid meet" version="1.2"><defs><clipPath id="1b7302a1f9"><path d="M 165.472656 277.199219 L 172.222656 277.199219 L 172.222656 283.949219 L 165.472656 283.949219 Z M 165.472656 277.199219 "/></clipPath><clipPath id="75d9d1f30b"><path d="M 29.167969 34.3125 L 345.667969 34.3125 L 345.667969 341 L 29.167969 341 Z M 29.167969 34.3125 "/></clipPath></defs><g id="780ad3ee7d"><g clip-rule="nonzero" clip-path="url(#1b7302a1f9)"><path style=" stroke:none;fill-rule:nonzero;fill:#000000;fill-opacity:1;" d="M 170.21875 279.847656 C 170.21875 278.6875 169.484375 277.683594 168.421875 277.203125 C 168.460938 277.199219 168.496094 277.199219 168.535156 277.199219 C 170.570312 277.199219 172.21875 278.710938 172.21875 280.574219 C 172.21875 282.4375 170.570312 283.949219 168.535156 283.949219 C 167.257812 283.949219 166.132812 283.351562 165.472656 282.445312 C 165.925781 282.671875 166.445312 282.796875 167 282.796875 C 168.777344 282.796875 170.21875 281.476562 170.21875 279.847656 Z M 170.21875 279.847656 "/></g><g clip-rule="nonzero" clip-path="url(#75d9d1f30b)"><path style=" stroke:none;fill-rule:nonzero;fill:#fc16e3;fill-opacity:1;" d="M 37.964844 245.777344 L 29.167969 34.324219 L 168.601562 81.34375 Z M 345.652344 183.226562 L 265.097656 103.078125 L 48.789062 263.375 Z M 247.117188 340.515625 L 247.117188 254.203125 C 247.117188 254.203125 66.222656 281.328125 59.15625 281.328125 Z M 247.117188 340.515625 "/></g></g></svg>